<?xml version="1.0" encoding="UTF-8" standalone="no"?>
<!-- Created with Inkscape (http://www.inkscape.org/) -->
<svg xmlns:dc="http://purl.org/dc/elements/1.1/" xmlns:cc="http://creativecommons.org/ns#" xmlns:rdf="http://www.w3.org/1999/02/22-rdf-syntax-ns#" xmlns:svg="http://www.w3.org/2000/svg" xmlns="http://www.w3.org/2000/svg" xmlns:inkscape="http://www.inkscape.org/namespaces/inkscape" xmlns:sodipodi="http://sodipodi.sourceforge.net/DTD/sodipodi-0.dtd" xmlns:ns1="http://sozi.baierouge.fr" version="1.1" width="40" height="72" id="svg2" inkscape:version="0.91 r13725" xmlns:xlink="http://www.w3.org/1999/xlink">
  <defs id="defs4"/>
  <metadata id="metadata7">
    <rdf:RDF>
      <cc:Work rdf:about="">
        <dc:format>image/svg+xml</dc:format>
        <dc:type rdf:resource="http://purl.org/dc/dcmitype/StillImage"/>
        <dc:title/>
      </cc:Work>
    </rdf:RDF>
  </metadata>
  <g transform="translate(-85.908678,-382.30617)" id="layer1">
    <g transform="translate(134.35029,-0.99998396)" id="g3128">
      <path d="m -32.441612,451.30615 0,-4 -4,0 -4,0 0,-12 0,-12 -4,0 -4,0 0,-8 0,-8 4,0 4,0 0,-4 0,-4 4,0 4,0 0,-4 0,-4 -4,0 -4,0 0,-4 0,-4 4,0 4,0 0,4 0,4 4,0 4,0 0,-4 0,-4 4,0 4,0 0,4 0,4 -4,0 -4,0 0,4 0,4 4,0 4,0 0,4 0,4 4,0 4,0 0,8 0,8 -4,0 -4,0 0,12 0,12 -4,0 -4,0 0,4 0,4 -4,0 -4,0 0,-4 z" id="path3138" style="fill:#fe831d"/>
      <path d="m -32.441612,451.30615 0,-4 -4,0 -4,0 0,-12 0,-12 -4,0 -4,0 0,-8 0,-8 4,0 4,0 0,-4 0,-4 4,0 4,0 0,-4 0,-4 -4,0 -4,0 0,-4 0,-4 4,0 4,0 0,4 0,4 4,0 4,0 0,-4 0,-4 4,0 4,0 0,4 0,4 -4,0 -4,0 0,4 0,4 4,0 4,0 0,4 0,4 4,0 4,0 0,8 0,8 -4,0 -4,0 0,12 0,12 -4,0 -4,0 0,4 0,4 -4,0 -4,0 0,-4 z m 8,-48 0,-4 -4,0 -4,0 0,4 0,4 4,0 4,0 0,-4 z" id="path3136" style="fill:#fe6500"/>
      <path d="m -32.441612,451.30615 0,-4 -4,0 -4,0 0,-12 0,-12 -4,0 -4,0 0,-8 0,-8 4,0 4,0 0,-4 0,-4 4,0 4,0 0,-4 0,-4 -4,0 -4,0 0,-4 0,-4 4,0 4,0 0,4 0,4 4,0 4,0 0,-4 0,-4 4,0 4,0 0,4 0,4 -4,0 -4,0 0,4 0,4 4,0 4,0 0,4 0,4 4,0 4,0 0,8 0,8 -4,0 -4,0 0,12 0,12 -4,0 -4,0 0,4 0,4 -4,0 -4,0 0,-4 z m 8,-8 0,-4 -4,0 -4,0 0,4 0,4 4,0 4,0 0,-4 z m 0,-16 0,-4 4,0 4,0 0,-4 0,-4 -4,0 -4,0 0,-8 0,-8 -4,0 -4,0 0,8 0,8 -4,0 -4,0 0,4 0,4 4,0 4,0 0,4 0,4 4,0 4,0 0,-4 z m -8,-8 0,-4 4,0 4,0 0,4 0,4 -4,0 -4,0 0,-4 z" id="path3134" style="fill:#e04700"/>
      <path d="m -32.441612,451.30615 0,-4 -4,0 -4,0 0,-12 0,-12 -4,0 -4,0 0,-8 0,-8 4,0 4,0 0,-4 0,-4 4,0 4,0 0,-4 0,-4 -4,0 -4,0 0,-4 0,-4 4,0 4,0 0,4 0,4 4,0 4,0 0,-4 0,-4 4,0 4,0 0,4 0,4 -4,0 -4,0 0,4 0,4 4,0 4,0 0,4 0,4 4,0 4,0 0,8 0,8 -4,0 -4,0 0,12 0,12 -4,0 -4,0 0,4 0,4 -4,0 -4,0 0,-4 z m 8,-16 0,-12 4,0 4,0 0,-8 0,-8 -4,0 -4,0 0,-4 0,-4 -4,0 -4,0 0,4 0,4 -4,0 -4,0 0,8 0,8 4,0 4,0 0,12 0,12 4,0 4,0 0,-12 z" id="path3132" style="fill:#486c17"/>
      <path d="m -32.441612,451.30615 0,-4 -4,0 -4,0 0,-12 0,-12 -4,0 -4,0 0,-8 0,-8 4,0 4,0 0,-4 0,-4 4,0 4,0 0,4 0,4 -4,0 -4,0 0,8 0,8 4,0 4,0 0,12 0,12 4,0 4,0 0,-12 0,-12 4,0 4,0 0,-8 0,-8 -4,0 -4,0 0,-4 0,-4 4,0 4,0 0,4 0,4 4,0 4,0 0,8 0,8 -4,0 -4,0 0,12 0,12 -4,0 -4,0 0,4 0,4 -4,0 -4,0 0,-4 z" id="path3130" style="fill:#000000"/>
    </g>
  </g>
</svg>
